<?xml version="1.0" encoding="utf-8"?>
<!-- Generator: Adobe Illustrator 24.1.2, SVG Export Plug-In . SVG Version: 6.00 Build 0)  -->
<svg version="1.1" id="Слой_1" xmlns="http://www.w3.org/2000/svg" xmlns:xlink="http://www.w3.org/1999/xlink" x="0px" y="0px"
	 viewBox="0 0 566 304" style="enable-background:new 0 0 566 304;" xml:space="preserve">
<style type="text/css">
	.st0{fill:#CCF96A;}
	.st1{fill:#D0F4F2;}
	.st2{fill:#FFFFFF;}
	.st3{fill:#F5446F;}
	.st4{fill:#F8F5FC;}
	.st5{fill:#5E349D;}
</style>
<g>
	<path class="st0" d="M136.66,281.46c0,0,48.11-114.73,65.35-104.12c17.24,10.61,57.97,104.12,57.97,104.12H136.66z"/>
</g>
<g>
	<path class="st0" d="M209.61,280.14c0,0,64.04-129.22,86.99-117.26c22.95,11.95,77.17,117.26,77.17,117.26H209.61z"/>
</g>
<g>
	<path class="st0" d="M433.46,281.46c0,0-43.98-109.83-59.74-99.67c-15.76,10.16-53,99.67-53,99.67H433.46z"/>
</g>
<g>
	<rect x="271.65" y="146.17" class="st1" width="7.96" height="133.96"/>
</g>
<g>
	<rect x="267.67" y="146.17" class="st2" width="6.63" height="133.96"/>
</g>
<g>
	<path class="st3" d="M292.38,32.11h-36.15c-3.9,0-7.65,1.55-10.41,4.31l-25.56,25.56c-2.76,2.76-4.31,6.5-4.31,10.41v36.15
		c0,3.9,1.55,7.65,4.31,10.41l25.56,25.56c2.76,2.76,6.5,4.31,10.41,4.31h36.15c3.9,0,7.65-1.55,10.41-4.31l25.56-25.56
		c2.76-2.76,4.31-6.5,4.31-10.41V72.39c0-3.9-1.55-7.65-4.31-10.41l-25.57-25.57C300.03,33.66,296.28,32.11,292.38,32.11z"/>
</g>
<g>
	<path class="st4" d="M260.07,93.76c0.23,0,0.35,0.87,0.35,2.62c0,1.75-0.12,2.62-0.35,2.62l-2.29,0.03v4.38
		c0,0.26-0.48,0.44-1.42,0.56c-0.95,0.12-1.77,0.17-2.47,0.17l-1.42-0.07c-1.18-0.09-1.77-0.3-1.77-0.63v-4.31h-6.91
		c-0.6-0.6-1.15-1.38-1.63-2.34c-0.49-0.96-0.73-1.66-0.73-2.08c0-0.43,0.07-0.77,0.21-1.02l7.61-13.48
		c0.09-0.19,0.8-0.32,2.14-0.42c1.33-0.09,2.73-0.14,4.19-0.14c1.46,0,2.19,0.06,2.19,0.17l0.04,13.93H260.07z M251.7,93.8v-7.26
		l-4.06,7.26H251.7z"/>
	<path class="st4" d="M272.94,104.5c-2.91,0-5.28-1.06-7.12-3.2c-1.84-2.13-2.76-5.25-2.76-9.34c0-4.1,0.93-7.2,2.78-9.29
		c1.85-2.1,4.24-3.14,7.17-3.14c2.93,0,5.3,1.04,7.1,3.13c1.81,2.08,2.71,5.22,2.71,9.41c0,4.19-0.92,7.31-2.76,9.36
		C278.22,103.47,275.84,104.5,272.94,104.5z M272.94,86.19c-0.89,0-1.64,0.5-2.26,1.51c-0.61,1.01-0.92,2.44-0.92,4.29
		c0,1.85,0.3,3.27,0.89,4.25c0.59,0.99,1.35,1.48,2.29,1.48c0.94,0,1.7-0.5,2.29-1.49c0.59-1,0.89-2.42,0.89-4.27
		c0-1.85-0.31-3.28-0.92-4.27C274.58,86.69,273.83,86.19,272.94,86.19z"/>
	<path class="st4" d="M303.04,93.76c0.23,0,0.35,0.87,0.35,2.62c0,1.75-0.12,2.62-0.35,2.62l-2.29,0.03v4.38
		c0,0.26-0.48,0.44-1.42,0.56c-0.95,0.12-1.77,0.17-2.47,0.17l-1.42-0.07c-1.18-0.09-1.77-0.3-1.77-0.63v-4.31h-6.91
		c-0.6-0.6-1.15-1.38-1.63-2.34c-0.49-0.96-0.73-1.66-0.73-2.08c0-0.43,0.07-0.77,0.21-1.02l7.61-13.48
		c0.09-0.19,0.8-0.32,2.14-0.42c1.33-0.09,2.73-0.14,4.19-0.14c1.46,0,2.19,0.06,2.19,0.17l0.03,13.93H303.04z M294.67,93.8v-7.26
		l-4.06,7.26H294.67z"/>
</g>
<g>
	<path class="st5" d="M287.57,283.45h-30.51c-1.1,0-1.99-0.89-1.99-1.99c0-1.1,0.89-1.99,1.99-1.99h30.51c1.1,0,1.99,0.89,1.99,1.99
		C289.56,282.56,288.66,283.45,287.57,283.45z"/>
</g>
<g>
	<path class="st5" d="M241.14,283.45h-46.42c-1.1,0-1.99-0.89-1.99-1.99c0-1.1,0.89-1.99,1.99-1.99h46.42c1.1,0,1.99,0.89,1.99,1.99
		C243.13,282.56,242.24,283.45,241.14,283.45z"/>
</g>
<g>
	<path class="st5" d="M177.48,283.45H128.4c-1.1,0-1.99-0.89-1.99-1.99c0-1.1,0.89-1.99,1.99-1.99h49.07c1.1,0,1.99,0.89,1.99,1.99
		C179.47,282.56,178.58,283.45,177.48,283.45z"/>
</g>
<g>
	<path class="st5" d="M433.46,283.45H302.16c-1.1,0-1.99-0.89-1.99-1.99c0-1.1,0.89-1.99,1.99-1.99h131.31
		c1.1,0,1.99,0.89,1.99,1.99C435.45,282.56,434.56,283.45,433.46,283.45z"/>
</g>
<g>
	<path class="st5" d="M280.27,282.13c-1.1,0-1.99-0.89-1.99-1.99v-133.3c0-1.1,0.89-1.99,1.99-1.99c1.1,0,1.99,0.89,1.99,1.99v133.3
		C282.26,281.23,281.37,282.13,280.27,282.13z"/>
</g>
<g>
	<path class="st5" d="M265.68,282.13c-1.1,0-1.99-0.89-1.99-1.99v-133.3c0-1.1,0.89-1.99,1.99-1.99c1.1,0,1.99,0.89,1.99,1.99v133.3
		C267.67,281.23,266.78,282.13,265.68,282.13z"/>
</g>
<g>
	<path class="st5" d="M291.76,148.16h-40.22c-2.44,0-4.74-0.95-6.47-2.68l-28.44-28.44c-1.73-1.73-2.68-4.03-2.68-6.47V70.36
		c0-2.44,0.95-4.74,2.68-6.47l28.44-28.44c1.73-1.73,4.02-2.68,6.47-2.68h40.22c2.44,0,4.74,0.95,6.47,2.68l28.44,28.44
		c1.73,1.73,2.68,4.02,2.68,6.47v40.22c0,2.44-0.95,4.74-2.68,6.47l-28.44,28.44C296.5,147.21,294.2,148.16,291.76,148.16z
		 M251.54,36.75c-1.38,0-2.68,0.54-3.65,1.51L219.45,66.7c-0.98,0.98-1.51,2.27-1.51,3.65v40.22c0,1.38,0.54,2.68,1.51,3.65
		l28.44,28.44c0.98,0.98,2.27,1.51,3.65,1.51h40.22c1.36,0,2.69-0.55,3.65-1.51l28.44-28.44c0.98-0.98,1.51-2.27,1.51-3.65V70.36
		c0-1.38-0.54-2.68-1.51-3.65l-28.44-28.44c-0.96-0.96-2.29-1.51-3.65-1.51H251.54z"/>
</g>
<g>
	<path class="st5" d="M282.98,133.57h-22.67c-4.21,0-8.16-1.64-11.13-4.61l-16.03-16.03c-2.97-2.97-4.61-6.93-4.61-11.13V79.13
		c0-4.21,1.64-8.16,4.61-11.13l16.03-16.03c2.97-2.97,6.93-4.61,11.13-4.61h22.67c4.21,0,8.16,1.64,11.13,4.61L310.15,68
		c2.97,2.97,4.61,6.93,4.61,11.13v22.67c0,4.21-1.64,8.16-4.61,11.13l-16.03,16.03C291.14,131.94,287.19,133.57,282.98,133.57z
		 M260.32,51.34c-3.14,0-6.1,1.22-8.32,3.45l-16.03,16.03c-2.22,2.22-3.45,5.18-3.45,8.32v22.67c0,3.14,1.22,6.1,3.45,8.32
		L252,126.15c2.22,2.22,5.18,3.45,8.32,3.45h22.67c3.14,0,6.1-1.22,8.32-3.45l16.03-16.03c2.22-2.22,3.45-5.18,3.45-8.32V79.13
		c0-3.14-1.22-6.1-3.45-8.32L291.3,54.79c-2.22-2.22-5.18-3.45-8.32-3.45H260.32z"/>
</g>
<g>
	<g>
		<path class="st2" d="M226.63,69.33c4-4,8-8,12-12c3.84-3.84,7.6-8.79,12-12c5.12-3.73,14.35-1.95,20.16-1.95
			c6.03,0,12.07,0,18.1,0c2.56,0,2.56-3.98,0-3.98c-6.47,0-12.95,0-19.42,0c-5.43,0-13.28-1.38-18.45,0.93
			c-5.15,2.3-9.51,8.49-13.37,12.34c-4.61,4.61-9.22,9.22-13.84,13.84C222.01,68.33,224.82,71.14,226.63,69.33L226.63,69.33z"/>
	</g>
</g>
<g>
	<path class="st2" d="M267.01,140.87c-1.05,0-1.93-0.82-1.98-1.89c-0.06-1.1,0.78-2.03,1.88-2.09l19-1c3.54-0.19,6.95-1.6,9.59-3.97
		l8.65-7.78c0.82-0.73,2.07-0.67,2.81,0.15c0.73,0.82,0.67,2.07-0.15,2.81l-8.65,7.79c-3.31,2.98-7.59,4.75-12.04,4.99l-19,1
		C267.08,140.87,267.04,140.87,267.01,140.87z"/>
</g>
<g>
	<path class="st2" d="M273.4,127.53c-0.7,0-1.28-0.54-1.32-1.25c-0.04-0.73,0.52-1.36,1.25-1.4l11.61-0.67
		c0.25-0.01,0.5-0.1,0.7-0.25l8.19-6.11c0.59-0.44,1.42-0.32,1.86,0.27s0.32,1.42-0.27,1.86l-8.19,6.11
		c-0.62,0.46-1.36,0.73-2.13,0.78l-11.61,0.67C273.46,127.53,273.43,127.53,273.4,127.53z"/>
</g>
<g>
	<path class="st2" d="M270.41,126.16c0,0.74-0.6,1.35-1.35,1.35c-0.74,0-1.35-0.6-1.35-1.35s0.6-1.35,1.35-1.35
		C269.8,124.81,270.41,125.41,270.41,126.16z"/>
</g>
<g>
	<path class="st1" d="M177.45,49.35H39.76c-4.74,0-8.62-3.88-8.62-8.62l0,0c0-4.74,3.88-8.62,8.62-8.62h137.69
		c4.74,0,8.62,3.88,8.62,8.62l0,0C186.07,45.47,182.19,49.35,177.45,49.35z"/>
</g>
<g>
	<path class="st1" d="M210.75,38.05H73.06c-4.74,0-8.62-3.88-8.62-8.62l0,0c0-4.74,3.88-8.62,8.62-8.62h137.69
		c4.74,0,8.62,3.88,8.62,8.62l0,0C219.37,34.17,215.49,38.05,210.75,38.05z"/>
</g>
<g>
	<path class="st1" d="M172.4,20.81H89.09c-4.74,0-8.62-3.88-8.62-8.62l0,0c0-4.74,3.88-8.62,8.62-8.62h83.31
		c4.74,0,8.62,3.88,8.62,8.62l0,0C181.02,16.93,177.14,20.81,172.4,20.81z"/>
</g>
<g>
	<path class="st1" d="M166.3,61.76H56.54c-3.16,0-5.75-2.59-5.75-5.75v-5.74c0-3.16,2.59-5.75,5.75-5.75H166.3
		c3.16,0,5.75,2.59,5.75,5.75v5.74C172.05,59.17,169.46,61.76,166.3,61.76z"/>
</g>
<g>
	<path class="st1" d="M485.66,130.7H347.97c-4.74,0-8.62-3.88-8.62-8.62l0,0c0-4.74,3.88-8.62,8.62-8.62h137.69
		c4.74,0,8.62,3.88,8.62,8.62l0,0C494.28,126.82,490.4,130.7,485.66,130.7z"/>
</g>
<g>
	<path class="st1" d="M518.96,119.4H381.27c-4.74,0-8.62-3.88-8.62-8.62l0,0c0-4.74,3.88-8.62,8.62-8.62h137.69
		c4.74,0,8.62,3.88,8.62,8.62l0,0C527.58,115.52,523.7,119.4,518.96,119.4z"/>
</g>
<g>
	<path class="st1" d="M158.3,180.23H78.47c-4.74,0-8.62-3.88-8.62-8.62l0,0c0-4.74,3.88-8.62,8.62-8.62h79.83
		c4.74,0,8.62,3.88,8.62,8.62l0,0C166.92,176.35,163.04,180.23,158.3,180.23z"/>
</g>
<g>
	<path class="st1" d="M134.97,196.24H55.15c-4.74,0-8.62-3.88-8.62-8.62l0,0c0-4.74,3.88-8.62,8.62-8.62h79.83
		c4.74,0,8.62,3.88,8.62,8.62l0,0C143.59,192.36,139.71,196.24,134.97,196.24z"/>
</g>
<g>
	<path class="st1" d="M437.28,106.88h-83.31c-4.74,0-8.62-3.88-8.62-8.62l0,0c0-4.74,3.88-8.62,8.62-8.62h83.31
		c4.74,0,8.62,3.88,8.62,8.62l0,0C445.9,103,442.02,106.88,437.28,106.88z"/>
</g>
<g>
	<path class="st1" d="M505,143.11H395.23c-3.16,0-5.75-2.59-5.75-5.75v-5.74c0-3.16,2.59-5.75,5.75-5.75H505
		c3.16,0,5.75,2.59,5.75,5.75v5.74C510.75,140.52,508.16,143.11,505,143.11z"/>
</g>
</svg>
