<svg width="123" height="86" viewBox="0 0 123 86" fill="none" xmlns="http://www.w3.org/2000/svg">
<path fill-rule="evenodd" clip-rule="evenodd" d="M10.3885 4.37327C10.3885 1.95798 12.3464 0 14.7617 0H79.2674C81.6827 0 83.6407 1.95798 83.6407 4.37327V7.65322H98.9472C100.568 7.65322 102.056 8.54955 102.813 9.98233L115.257 33.5178L122.205 43.4049C122.722 44.1413 123 45.0193 123 45.9193V69.9723C123 72.3876 121.042 74.3456 118.627 74.3456H107.147C104.732 74.3456 102.774 72.3876 102.774 69.9723C102.774 67.557 104.732 65.599 107.147 65.599H114.254V47.3022L109.248 40.1794H79.2674C76.8521 40.1794 74.8942 38.2214 74.8942 35.8061V8.74654H14.7617C12.3464 8.74654 10.3885 6.78856 10.3885 4.37327ZM83.6407 16.3998V31.4329H104.261L96.3125 16.3998H83.6407ZM9.8418 69.9723C9.8418 67.557 11.7998 65.599 14.2151 65.599H25.1482C27.5635 65.599 29.5215 67.557 29.5215 69.9723C29.5215 72.3876 27.5635 74.3456 25.1482 74.3456H14.2151C11.7998 74.3456 9.8418 72.3876 9.8418 69.9723ZM50.2945 69.9723C50.2945 67.557 52.2525 65.599 54.6678 65.599H77.6275C80.0428 65.599 82.0007 67.557 82.0007 69.9723C82.0007 72.3876 80.0428 74.3456 77.6275 74.3456H54.6678C52.2525 74.3456 50.2945 72.3876 50.2945 69.9723Z" fill="#F2F2F2"/>
<path fill-rule="evenodd" clip-rule="evenodd" d="M6.01196 20.227C6.01196 17.8117 7.96994 15.8538 10.3852 15.8538H42.6381C45.0534 15.8538 47.0114 17.8117 47.0114 20.227C47.0114 22.6423 45.0534 24.6003 42.6381 24.6003H10.3852C7.96994 24.6003 6.01196 22.6423 6.01196 20.227Z" fill="#F2F2F2"/>
<path fill-rule="evenodd" clip-rule="evenodd" d="M0 35.5349C0 33.1196 1.95798 31.1616 4.37327 31.1616H36.6261C39.0414 31.1616 40.9994 33.1196 40.9994 35.5349C40.9994 37.9502 39.0414 39.9082 36.6261 39.9082H4.37327C1.95798 39.9082 0 37.9502 0 35.5349Z" fill="#F2F2F2"/>
<path fill-rule="evenodd" clip-rule="evenodd" d="M6.01196 50.8376C6.01196 48.4223 7.96994 46.4644 10.3852 46.4644H27.8783C30.2936 46.4644 32.2516 48.4223 32.2516 50.8376C32.2516 53.2529 30.2936 55.2109 27.8783 55.2109H10.3852C7.96994 55.2109 6.01196 53.2529 6.01196 50.8376Z" fill="#F2F2F2"/>
<path fill-rule="evenodd" clip-rule="evenodd" d="M39.9053 76.5304C43.5283 76.5304 46.4652 73.5934 46.4652 69.9705C46.4652 66.3476 43.5283 63.4106 39.9053 63.4106C36.2824 63.4106 33.3454 66.3476 33.3454 69.9705C33.3454 73.5934 36.2824 76.5304 39.9053 76.5304ZM39.9053 85.2769C48.3588 85.2769 55.2118 78.424 55.2118 69.9705C55.2118 61.517 48.3588 54.6641 39.9053 54.6641C31.4518 54.6641 24.5989 61.517 24.5989 69.9705C24.5989 78.424 31.4518 85.2769 39.9053 85.2769Z" fill="#F2F2F2"/>
<path fill-rule="evenodd" clip-rule="evenodd" d="M92.3851 76.5304C96.008 76.5304 98.945 73.5934 98.945 69.9705C98.945 66.3476 96.008 63.4106 92.3851 63.4106C88.7621 63.4106 85.8252 66.3476 85.8252 69.9705C85.8252 73.5934 88.7621 76.5304 92.3851 76.5304ZM92.3851 85.2769C100.839 85.2769 107.691 78.424 107.691 69.9705C107.691 61.517 100.839 54.6641 92.3851 54.6641C83.9315 54.6641 77.0786 61.517 77.0786 69.9705C77.0786 78.424 83.9315 85.2769 92.3851 85.2769Z" fill="#F2F2F2"/>
</svg>
