<svg width="100" height="100" viewBox="0 0 100 100" fill="none" xmlns="http://www.w3.org/2000/svg">
<path fill-rule="evenodd" clip-rule="evenodd" d="M43.6397 20.0002C44.4094 20.0017 45.0947 20.4875 45.3509 21.2133L54.8346 48.0837L65.6465 26.4599L68.8989 28.0861L56.1717 53.5406C55.8454 54.1932 55.1606 54.5875 54.4325 54.5422C53.7043 54.4968 53.0737 54.0206 52.8309 53.3326L43.6262 27.2527L36.2577 47.8845C36.0127 48.5704 35.3821 49.0439 34.655 49.0878C33.928 49.1317 33.2449 48.7375 32.9192 48.0861L30.9091 44.0658L27.0808 51.7224C26.7682 52.3476 26.125 52.7382 25.4261 52.7273C24.7273 52.7164 24.0966 52.3058 23.8037 51.6713L14.3733 31.2388L8.85134 40.9023L5.69409 39.0982L12.9668 26.3709C13.3046 25.7799 13.9442 25.427 14.6243 25.4565C15.3044 25.486 15.911 25.893 16.1963 26.511L25.5201 46.7126L29.2828 39.1871C29.5908 38.5712 30.2204 38.1821 30.9091 38.1821C31.5978 38.1821 32.2273 38.5712 32.5353 39.1871L34.2662 42.6489L41.9241 21.2069C42.1829 20.4821 42.8701 19.9988 43.6397 20.0002Z" fill="#F2F2F2"/>
<path fill-rule="evenodd" clip-rule="evenodd" d="M37.7778 8.88913C21.8229 8.88913 8.88889 21.8231 8.88889 37.778C8.88889 53.7329 21.8229 66.6669 37.7778 66.6669C45.7385 66.6669 52.9399 63.4529 58.1698 58.241C63.4234 53.0055 66.6667 45.7747 66.6667 37.778C66.6667 21.8231 53.7327 8.88913 37.7778 8.88913ZM0 37.778C0 16.9139 16.9137 0.000244141 37.7778 0.000244141C58.6419 0.000244141 75.5555 16.9139 75.5555 37.778C75.5555 46.6328 72.5049 54.7811 67.4038 61.2206C72.4336 66.2762 78.9767 72.8177 84.6371 78.4685C88.059 81.8846 91.1561 84.9731 93.3978 87.2075C94.5186 88.3247 95.4255 89.2283 96.0521 89.8527L97.024 90.8207L97.0248 90.8215C97.0249 90.8216 97.025 90.8217 93.8889 93.971C90.7528 97.1202 90.7527 97.1202 90.7525 97.12L90.7517 97.1192L89.7786 96.1498C89.1514 95.525 88.2439 94.6208 87.1225 93.503C84.8797 91.2675 81.7809 88.1774 78.357 84.7593C72.7 79.1117 66.1495 72.563 61.1064 67.4939C54.6849 72.541 46.5803 75.5558 37.7778 75.5558C16.9137 75.5558 0 58.6421 0 37.778ZM93.8889 93.971L90.7525 97.12C92.4918 98.852 95.3061 98.8464 97.0381 97.1071C98.7702 95.3678 98.764 92.5535 97.0248 90.8215L93.8889 93.971Z" fill="#F2F2F2"/>
</svg>
