<svg width="100" height="100" viewBox="0 0 100 100" fill="none" xmlns="http://www.w3.org/2000/svg">
<path fill-rule="evenodd" clip-rule="evenodd" d="M78.7028 7.37925C73.7112 6.58101 68.4215 8.10782 64.5774 11.9519C60.0156 16.5136 58.7154 23.1097 60.6972 28.8361C61.1464 30.1342 60.815 31.5748 59.8437 32.546L32.546 59.8437C31.5748 60.815 30.1342 61.1464 28.8361 60.6972C23.1097 58.7154 16.5136 60.0156 11.9519 64.5774C8.10782 68.4214 6.58101 73.7112 7.37925 78.7028L14.6176 71.4644L17.1543 74.0011C14.6176 71.4644 14.619 71.4631 14.6203 71.4617L14.6231 71.4589L14.6291 71.453L14.6421 71.4401C14.6469 71.4354 14.652 71.4305 14.6573 71.4253C14.6623 71.4204 14.6676 71.4153 14.6731 71.4099C14.6959 71.3879 14.723 71.3621 14.7544 71.3329C14.8169 71.2747 14.8969 71.2025 14.9932 71.1199C15.185 70.9554 15.4473 70.7448 15.7731 70.5178C16.4117 70.073 17.3666 69.5144 18.5715 69.1508C19.7969 68.781 21.3168 68.6042 22.9859 68.9939C24.6673 69.3864 26.2647 70.2992 27.7114 71.7458C30.776 74.8104 31.1242 78.2103 30.4043 80.8602C30.0748 82.0731 29.5511 83.0437 29.1281 83.6986C28.9126 84.0321 28.7118 84.3016 28.5544 84.4991C28.4753 84.5983 28.4062 84.6806 28.3503 84.7452C28.3352 84.7627 28.321 84.7789 28.3078 84.7939C28.2966 84.8065 28.2861 84.8183 28.2764 84.8291C28.2658 84.8409 28.2561 84.8516 28.2474 84.8611L28.235 84.8746L28.2293 84.8808L28.2266 84.8837C28.2253 84.8851 28.224 84.8865 25.5969 82.4437L28.224 84.8865C28.1944 84.9183 28.1643 84.9496 28.1335 84.9803L20.8952 92.2187C25.8867 93.0169 31.1765 91.4901 35.0206 87.6461C39.5823 83.0843 40.8825 76.4882 38.9008 70.7618C38.4516 69.4638 38.783 68.0232 39.7542 67.0519L67.0519 39.7542C68.0232 38.783 69.4638 38.4516 70.7618 38.9008C76.4882 40.8825 83.0843 39.5823 87.6461 35.0206C91.4901 31.1765 93.017 25.8867 92.2187 20.8952L84.9803 28.1335L82.4437 25.5969C84.9803 28.1335 84.979 28.1349 84.9776 28.1362L84.9748 28.139L84.9689 28.1449L84.9558 28.1578C84.9497 28.1638 84.9432 28.1702 84.9362 28.177L84.9248 28.188C84.9129 28.1995 84.8999 28.212 84.8856 28.2255C84.8726 28.2379 84.8586 28.2511 84.8436 28.265C84.781 28.3233 84.7011 28.3954 84.6047 28.4781C84.413 28.6425 84.1507 28.8531 83.8248 29.0801C83.1863 29.525 82.2314 30.0836 81.0265 30.4472C79.8011 30.817 78.2812 30.9937 76.612 30.604C74.9306 30.2115 73.3332 29.2988 71.8866 27.8521C68.822 24.7876 68.4738 21.3876 69.1937 18.7377C69.5232 17.5249 70.0469 16.5543 70.4699 15.8994C70.6853 15.5658 70.8862 15.2964 71.0436 15.0989C71.1226 14.9997 71.1918 14.9173 71.2477 14.8527C71.2757 14.8204 71.3004 14.7924 71.3216 14.7688C71.3322 14.7571 71.3418 14.7464 71.3506 14.7368L71.363 14.7233L71.3686 14.7172L71.3713 14.7143C71.3726 14.7129 71.3739 14.7115 74.0011 17.1543L71.3739 14.7115C71.4035 14.6797 71.4337 14.6484 71.4644 14.6176L78.7028 7.37925ZM76.6405 19.5882L87.8539 8.37476C88.6615 7.56716 89.0363 6.42327 88.8632 5.29435C88.69 4.16543 87.9897 3.1864 86.9772 2.65791C78.1261 -1.96217 66.9442 -0.561565 59.5041 6.87858C53.509 12.8737 51.4367 21.2996 53.2717 28.9714L47.9389 34.3042L33.403 19.7683L34.6656 18.5058C35.4429 17.7284 35.8209 16.6375 35.6912 15.5458C35.5615 14.4541 34.9383 13.4822 34.0004 12.9087L14.4418 0.948321C13.0278 0.0836599 11.2055 0.300204 10.0336 1.47216L1.59098 9.91476C0.419018 11.0867 0.202474 12.909 1.06714 14.3229L13.0275 33.8816C13.601 34.8195 14.573 35.4427 15.6647 35.5724C16.7563 35.7021 17.8472 35.3241 18.6246 34.5467L19.8871 33.2842L34.423 47.8201L28.9714 53.2717C21.2996 51.4367 12.8737 53.509 6.87858 59.5041C-0.561562 66.9442 -1.96217 78.1261 2.65791 86.9772C3.1864 87.9897 4.16542 88.69 5.29435 88.8632C6.42327 89.0363 7.56716 88.6615 8.37476 87.8539L19.6537 76.5749C19.6567 76.5724 19.6601 76.5694 19.6641 76.5659C19.7002 76.535 19.7726 76.4757 19.8744 76.4048C20.0911 76.2538 20.363 76.1045 20.6443 76.0196C20.9052 75.9409 21.131 75.9285 21.3548 75.9808C21.5664 76.0302 22.0093 76.1904 22.6381 76.8191C23.2658 77.4468 23.4457 77.9089 23.5068 78.1592C23.5713 78.4236 23.5594 78.6888 23.4805 78.9792C23.3967 79.2877 23.2476 79.5791 23.1012 79.8059C23.0414 79.8985 22.9899 79.968 22.9575 80.0098L11.744 91.2232C10.9364 92.0308 10.5617 93.1747 10.7348 94.3036C10.9079 95.4325 11.6082 96.4115 12.6207 96.94C21.4719 101.56 32.6537 100.16 40.0939 92.7194C46.089 86.7242 48.1613 78.2983 46.3262 70.6265L47.5565 69.3962L73.4938 95.3334C79.5574 101.397 89.3886 101.397 95.4522 95.3334C101.516 89.2698 101.516 79.4386 95.4522 73.3749L69.515 47.4377L70.6265 46.3262C78.2983 48.1613 86.7243 46.089 92.7194 40.0939C100.16 32.6537 101.56 21.4719 96.94 12.6207C96.4116 11.6082 95.4325 10.9079 94.3036 10.7348C93.1747 10.5617 92.0308 10.9365 91.2232 11.7441L79.9442 23.023C79.9413 23.0256 79.9378 23.0286 79.9339 23.032C79.8978 23.0629 79.8254 23.1222 79.7236 23.1931C79.5069 23.3441 79.235 23.4935 78.9536 23.5784C78.6928 23.6571 78.467 23.6694 78.2431 23.6172C78.0316 23.5678 77.5887 23.4076 76.9599 22.7788C76.3322 22.1511 76.1523 21.6891 76.0912 21.4388C76.0267 21.1743 76.0385 20.9092 76.1174 20.6188C76.2013 20.3102 76.3503 20.0188 76.4968 19.7921C76.5566 19.6995 76.608 19.6299 76.6405 19.5882ZM64.4417 52.511L52.6298 64.3229L78.5671 90.2601C81.8288 93.5219 87.1172 93.5219 90.3789 90.2601C93.6407 86.9984 93.6407 81.71 90.3789 78.4482L64.4417 52.511ZM39.4963 42.7468L42.8656 39.3775L28.3297 24.8416L24.9604 28.2109L39.4963 42.7468ZM16.7722 26.2526L26.3714 16.6533L13.1091 8.54327L8.66209 12.9903L16.7722 26.2526ZM61.5334 61.4146C62.9344 60.0136 65.2058 60.0136 66.6067 61.4146L83.9844 78.7923C85.3853 80.1932 85.3853 82.4646 83.9844 83.8656C82.5834 85.2665 80.312 85.2665 78.9111 83.8656L61.5334 66.4879C60.1325 65.0869 60.1325 62.8155 61.5334 61.4146Z" fill="#F2F2F2"/>
</svg>
