<svg width="98" height="100" viewBox="0 0 98 100" fill="none" xmlns="http://www.w3.org/2000/svg">
<path fill-rule="evenodd" clip-rule="evenodd" d="M49.1288 74.5837C67.5517 74.5837 82.4055 59.7446 82.4055 41.5391C82.4055 23.3336 67.5517 8.49453 49.1288 8.49453C30.706 8.49453 15.8522 23.3336 15.8522 41.5391C15.8522 59.7446 30.706 74.5837 49.1288 74.5837ZM49.1288 83.0782C72.1984 83.0782 90.9 64.4805 90.9 41.5391C90.9 18.5977 72.1984 0 49.1288 0C26.0593 0 7.35767 18.5977 7.35767 41.5391C7.35767 64.4805 26.0593 83.0782 49.1288 83.0782Z" fill="#F2F2F2"/>
<path fill-rule="evenodd" clip-rule="evenodd" d="M70.1783 26.9874C71.4223 28.2314 71.4223 30.2483 70.1783 31.4923L45.5797 56.0909C44.3358 57.3349 42.3188 57.3349 41.0748 56.0909L27.8473 42.8634C26.6033 41.6194 26.6033 39.6025 27.8473 38.3585C29.0913 37.1145 31.1082 37.1145 32.3522 38.3585L43.3273 49.3336L65.6734 26.9874C66.9174 25.7434 68.9343 25.7434 70.1783 26.9874Z" fill="#F2F2F2"/>
<path fill-rule="evenodd" clip-rule="evenodd" d="M19.5552 98.6734C18.2973 98.3945 17.3313 97.3854 17.1076 96.1166L15.3812 86.3257L5.59026 88.0521C4.32144 88.2758 3.04279 87.7132 2.35053 86.6266C1.65828 85.54 1.68875 84.1433 2.42775 83.0879L15.7383 64.0785L20.957 67.7327L12.0575 80.4426L17.4119 79.4984C19.1445 79.1929 20.7967 80.3498 21.1021 82.0823L22.0463 87.4368L30.9458 74.7269L36.1645 78.3811L22.854 97.3906C22.115 98.4459 20.813 98.9523 19.5552 98.6734Z" fill="#F2F2F2"/>
<path fill-rule="evenodd" clip-rule="evenodd" d="M78.4448 98.6734C79.7027 98.3945 80.6687 97.3854 80.8924 96.1166L82.6188 86.3257L92.4097 88.0521C93.6786 88.2758 94.9572 87.7132 95.6495 86.6266C96.3417 85.54 96.3112 84.1433 95.5723 83.0879L82.2617 64.0785L77.043 67.7327L85.9425 80.4426L80.5881 79.4984C78.8555 79.1929 77.2033 80.3498 76.8979 82.0823L75.9537 87.4368L67.0542 74.7269L61.8355 78.3811L75.146 97.3906C75.885 98.4459 77.187 98.9523 78.4448 98.6734Z" fill="#F2F2F2"/>
</svg>
